<?xml version="1.0" encoding="UTF-8" standalone="no"?>
<!-- Created with Inkscape (http://www.inkscape.org/) -->

<svg
   width="16"
   height="16"
   viewBox="0 0 4.2333333 4.2333332"
   version="1.1"
   id="svg5"
   inkscape:version="1.2.1 (9c6d41e410, 2022-07-14)"
   sodipodi:docname="Placement Helper.svg"
   inkscape:export-filename="Placement Helper.png"
   inkscape:export-xdpi="768"
   inkscape:export-ydpi="768"
   xmlns:inkscape="http://www.inkscape.org/namespaces/inkscape"
   xmlns:sodipodi="http://sodipodi.sourceforge.net/DTD/sodipodi-0.dtd"
   xmlns="http://www.w3.org/2000/svg"
   xmlns:svg="http://www.w3.org/2000/svg">
  <sodipodi:namedview
     id="namedview7"
     pagecolor="#505050"
     bordercolor="#ffffff"
     borderopacity="1"
     inkscape:showpageshadow="0"
     inkscape:pageopacity="0"
     inkscape:pagecheckerboard="1"
     inkscape:deskcolor="#505050"
     inkscape:document-units="mm"
     showgrid="true"
     inkscape:zoom="32"
     inkscape:cx="6.28125"
     inkscape:cy="8.46875"
     inkscape:window-width="1920"
     inkscape:window-height="1001"
     inkscape:window-x="0"
     inkscape:window-y="0"
     inkscape:window-maximized="1"
     inkscape:current-layer="layer1">
    <inkscape:grid
       type="xygrid"
       id="grid182"
       empspacing="4"
       spacingx="0.26458333" />
  </sodipodi:namedview>
  <defs
     id="defs2" />
  <g
     inkscape:label="Layer 1"
     inkscape:groupmode="layer"
     id="layer1">
    <path
       style="fill:none;stroke:#cccccc;stroke-width:0.132292;stroke-linecap:round;stroke-linejoin:round;paint-order:fill markers stroke;fill-opacity:1"
       d="m 0.26458333,0.52916666 c 0.0881944,-0.0881944 0.17638889,-0.17638889 0.26458333,-0.26458333 1.05833334,0 2.11666664,0 3.17499994,0 0.088194,0.0881944 0.1763889,0.17638889 0.2645834,0.26458333 0,1.05833334 0,2.11666664 0,3.17499994 -0.088195,0.088194 -0.1763889,0.1763889 -0.2645834,0.2645834 -1.0583333,0 -2.1166666,0 -3.17499994,0 -0.0881944,-0.088195 -0.17638889,-0.1763889 -0.26458333,-0.2645834 0,-1.0583333 0,-2.1166666 0,-3.17499994 z"
       id="path797"
       sodipodi:nodetypes="ccccccccc" />
    <path
       style="fill:#ffffff;fill-opacity:1;stroke:#333333;stroke-width:0.132292;stroke-linecap:round;stroke-linejoin:round;stroke-opacity:1;paint-order:fill markers stroke"
       d="M 2.38125,2.6458333 2.9104167,2.1166666 2.38125,1.5875 V 1.8520833 H 1.3229167 V 2.38125 H 2.38125 Z"
       id="path1331" />
  </g>
</svg>
